# Blender 4.2.0
# www.blender.org
mtllib Frog3.mtl
o Frog_Low
v 0.000000 0.016637 0.031609
v 0.025355 0.040242 -0.018688
v 0.011807 0.048490 0.012112
v 0.010208 0.037132 0.027225
v 0.011571 0.051148 -0.006755
v 0.013341 0.055519 -0.023330
v 0.028325 0.034624 0.006797
v 0.027386 0.038811 -0.010727
v 0.020908 0.027598 0.023253
v 0.025517 0.028803 -0.006818
v 0.024674 0.016140 0.014332
v 0.016023 0.055070 -0.028286
v 0.006167 0.057926 -0.035273
v 0.009426 0.060592 -0.032930
v 0.019670 0.038979 -0.035739
v 0.016311 0.051502 -0.038300
v 0.007660 0.055680 -0.044459
v 0.006250 0.046928 -0.051819
v 0.007854 0.059837 -0.039352
v 0.005627 0.051161 -0.050901
v 0.027082 0.025391 0.011869
v 0.029147 0.024163 0.022019
v 0.028359 0.013473 0.028445
v 0.035823 0.019803 0.014211
v 0.037666 0.019673 0.019320
v 0.041118 0.014477 0.019628
v 0.042696 0.004902 0.017745
v 0.032587 0.013504 0.014106
v 0.023147 0.010793 0.015248
v 0.034656 0.004902 0.019128
v 0.036997 0.004902 0.022292
v 0.025035 0.010640 -0.010964
v 0.016279 0.003651 -0.015467
v 0.024473 0.036406 -0.024293
v 0.015596 0.024831 -0.032685
v 0.000000 0.023803 -0.037773
v 0.015872 0.011997 -0.026573
v 0.000000 0.007938 -0.029829
v 0.022980 0.025868 -0.025142
v 0.023235 0.022375 -0.022450
v 0.026452 0.020401 -0.013015
v 0.000000 0.034911 -0.042678
v 0.036997 0.000371 0.022292
v 0.038868 0.013625 0.015222
v 0.039198 0.004902 0.016009
v 0.043674 0.000371 0.017158
v 0.039700 0.000371 0.003589
v 0.032270 0.000371 0.006872
v 0.050000 0.000371 0.010586
v 0.045600 0.000371 0.006231
v 0.035646 0.034348 -0.015970
v 0.034498 0.026015 -0.012214
v 0.034844 0.030210 -0.022440
v 0.030531 0.024714 -0.023612
v 0.029071 0.022671 -0.021232
v 0.038958 0.028924 -0.016835
v 0.037888 0.014398 -0.020209
v 0.037732 0.006015 -0.025767
v 0.035669 0.014860 -0.025870
v 0.034994 0.006413 -0.028318
v 0.030085 0.014809 -0.026371
v 0.030094 0.006052 -0.027173
v 0.027970 0.011928 -0.023034
v 0.029582 0.004616 -0.023687
v 0.035132 0.000549 -0.020103
v 0.034613 0.010690 -0.015523
v 0.037959 0.001070 -0.038298
v 0.044589 0.000888 -0.033230
v 0.028459 0.000219 -0.038334
v 0.023009 -0.000176 -0.029263
v -0.025355 0.040242 -0.018688
v -0.011807 0.048490 0.012112
v -0.010208 0.037132 0.027225
v -0.011571 0.051148 -0.006755
v -0.013341 0.055519 -0.023330
v -0.028325 0.034624 0.006797
v -0.027386 0.038811 -0.010727
v -0.020908 0.027598 0.023253
v -0.025517 0.028803 -0.006818
v -0.024674 0.016140 0.014332
v -0.016023 0.055070 -0.028286
v -0.006167 0.057926 -0.035273
v -0.009426 0.060592 -0.032930
v -0.019670 0.038979 -0.035739
v -0.016311 0.051502 -0.038300
v -0.007660 0.055680 -0.044459
v -0.006250 0.046928 -0.051819
v -0.007854 0.059837 -0.039352
v -0.005627 0.051161 -0.050901
v -0.027082 0.025391 0.011869
v -0.029147 0.024163 0.022019
v -0.028359 0.013473 0.028445
v -0.035823 0.019803 0.014211
v -0.037666 0.019673 0.019320
v -0.041118 0.014477 0.019628
v -0.042696 0.004902 0.017745
v -0.032587 0.013504 0.014106
v -0.023147 0.010793 0.015248
v -0.034656 0.004902 0.019128
v -0.036997 0.004902 0.022292
v -0.025035 0.010640 -0.010964
v -0.016279 0.003651 -0.015467
v -0.024473 0.036406 -0.024293
v -0.015596 0.024831 -0.032685
v -0.015872 0.011997 -0.026573
v -0.022980 0.025868 -0.025142
v -0.023235 0.022375 -0.022450
v -0.026452 0.020401 -0.013015
v -0.036997 0.000371 0.022292
v -0.038868 0.013625 0.015222
v -0.039198 0.004902 0.016009
v -0.043674 0.000371 0.017158
v -0.039700 0.000371 0.003589
v -0.032270 0.000371 0.006872
v -0.050000 0.000371 0.010586
v -0.045600 0.000371 0.006231
v -0.035646 0.034348 -0.015970
v -0.034498 0.026015 -0.012214
v -0.034844 0.030210 -0.022440
v -0.030531 0.024714 -0.023612
v -0.029071 0.022671 -0.021232
v -0.038958 0.028924 -0.016835
v -0.037888 0.014398 -0.020209
v -0.037732 0.006015 -0.025767
v -0.035669 0.014860 -0.025870
v -0.034994 0.006413 -0.028318
v -0.030085 0.014809 -0.026371
v -0.030094 0.006052 -0.027173
v -0.027970 0.011928 -0.023034
v -0.029582 0.004616 -0.023687
v -0.035132 0.000549 -0.020103
v -0.034613 0.010690 -0.015523
v -0.037959 0.001070 -0.038298
v -0.044589 0.000888 -0.033230
v -0.028459 0.000219 -0.038334
v -0.023009 -0.000176 -0.029263
vn -0.0000 0.2219 0.9751
vn 0.7064 0.6875 -0.1683
vn 0.3525 0.8592 0.3709
vn 0.3169 0.4884 0.8130
vn 0.3535 0.9168 0.1860
vn 0.3744 0.8788 0.2960
vn 0.9318 0.3116 0.1863
vn 0.7472 0.6252 0.2255
vn 0.4919 0.4932 0.7175
vn 0.9773 -0.0293 0.2097
vn 0.6661 -0.2598 -0.6992
vn 0.7709 0.6364 0.0264
vn -0.3816 0.9217 0.0693
vn -0.0557 0.9769 0.2064
vn 0.8088 -0.1092 -0.5779
vn 0.8456 0.3783 -0.3768
vn 0.3065 0.7872 -0.5352
vn 0.3888 -0.1748 -0.9046
vn -0.1875 0.8905 -0.4144
vn 0.3209 0.5043 -0.8017
vn 0.9821 0.1463 -0.1184
vn 0.4707 0.7543 0.4577
vn 0.3871 0.3403 0.8570
vn 0.5115 0.4689 -0.7201
vn 0.6883 0.6783 0.2572
vn 0.9154 0.3018 0.2663
vn 0.8672 0.4068 0.2872
vn 0.0702 -0.1593 -0.9847
vn 0.7816 -0.4215 -0.4599
vn -0.3428 0.3502 -0.8717
vn 0.6055 -0.0194 0.7956
vn 0.8583 -0.4903 -0.1513
vn 0.5971 -0.7123 -0.3690
vn 0.7560 0.2313 -0.6123
vn 0.5427 -0.3289 -0.7728
vn -0.0000 -0.4199 -0.9076
vn 0.5326 -0.5199 -0.6679
vn -0.0000 -0.5704 -0.8213
vn 0.5155 -0.2738 -0.8120
vn 0.6292 -0.4313 -0.6467
vn 0.9836 -0.1214 -0.1333
vn -0.0000 -0.5451 -0.8384
vn 0.6187 0.0102 0.7856
vn 0.5338 0.0272 -0.8452
vn -0.0664 0.6474 -0.7593
vn 0.6745 0.0501 0.7366
vn -0.0024 0.9428 -0.3333
vn -0.1410 0.9372 -0.3190
vn 0.4542 0.8856 -0.0971
vn 0.2031 0.9268 -0.3160
vn 0.7603 0.6327 0.1468
vn 0.6975 0.0618 0.7139
vn 0.5601 0.3494 -0.7512
vn -0.0957 -0.0332 -0.9949
vn -0.5876 -0.3412 -0.7337
vn 0.9699 0.2109 0.1216
vn 0.9950 -0.0156 0.0988
vn 0.9428 0.3334 -0.0033
vn 0.5811 0.2464 -0.7756
vn 0.2040 0.6736 -0.7104
vn -0.4952 0.2135 -0.8421
vn -0.6919 0.5313 -0.4889
vn -0.8985 0.0460 -0.4366
vn -0.9525 0.3042 -0.0147
vn 0.8983 -0.0364 0.4378
vn 0.8608 -0.1430 0.4885
vn 0.1122 0.8895 -0.4429
vn 0.5234 0.8407 -0.1389
vn -0.2872 0.8574 -0.4270
vn -0.6118 0.7644 -0.2034
vn -0.7064 0.6875 -0.1683
vn -0.3525 0.8592 0.3709
vn -0.3169 0.4884 0.8130
vn -0.3535 0.9168 0.1860
vn -0.3744 0.8788 0.2960
vn -0.9318 0.3116 0.1863
vn -0.7472 0.6252 0.2255
vn -0.4919 0.4932 0.7175
vn -0.9773 -0.0293 0.2097
vn -0.6661 -0.2598 -0.6992
vn -0.7709 0.6364 0.0264
vn 0.3816 0.9217 0.0693
vn 0.0557 0.9769 0.2064
vn -0.8088 -0.1092 -0.5779
vn -0.8456 0.3783 -0.3768
vn -0.3065 0.7872 -0.5352
vn -0.3888 -0.1748 -0.9046
vn 0.1875 0.8905 -0.4144
vn -0.3209 0.5043 -0.8017
vn -0.9821 0.1463 -0.1184
vn -0.4707 0.7543 0.4577
vn -0.3871 0.3403 0.8570
vn -0.5115 0.4689 -0.7201
vn -0.6883 0.6783 0.2572
vn -0.9154 0.3018 0.2663
vn -0.8672 0.4068 0.2872
vn -0.0702 -0.1593 -0.9847
vn -0.7816 -0.4215 -0.4599
vn 0.3428 0.3502 -0.8717
vn -0.6055 -0.0194 0.7956
vn -0.8583 -0.4903 -0.1513
vn -0.5971 -0.7123 -0.3690
vn -0.7560 0.2313 -0.6123
vn -0.5427 -0.3289 -0.7728
vn -0.5326 -0.5199 -0.6679
vn -0.5155 -0.2738 -0.8120
vn -0.6292 -0.4313 -0.6467
vn -0.9836 -0.1214 -0.1333
vn -0.6187 0.0102 0.7856
vn -0.5338 0.0272 -0.8452
vn 0.0664 0.6474 -0.7593
vn -0.6745 0.0501 0.7366
vn 0.0024 0.9428 -0.3333
vn 0.1410 0.9372 -0.3190
vn -0.4542 0.8856 -0.0971
vn -0.2031 0.9268 -0.3160
vn -0.7603 0.6327 0.1468
vn -0.6975 0.0618 0.7139
vn -0.5601 0.3494 -0.7512
vn 0.0957 -0.0332 -0.9949
vn 0.5876 -0.3412 -0.7337
vn -0.9699 0.2109 0.1216
vn -0.9950 -0.0156 0.0988
vn -0.9428 0.3334 -0.0033
vn -0.5811 0.2464 -0.7756
vn -0.2040 0.6736 -0.7104
vn 0.4952 0.2135 -0.8421
vn 0.6919 0.5313 -0.4889
vn 0.8985 0.0460 -0.4366
vn 0.9525 0.3042 -0.0147
vn -0.8983 -0.0364 0.4378
vn -0.8608 -0.1430 0.4885
vn -0.1122 0.8895 -0.4429
vn -0.5234 0.8407 -0.1389
vn 0.2872 0.8574 -0.4270
vn 0.6118 0.7644 -0.2034
vt 0.204369 0.202555
vt 0.322794 0.047106
vt 0.316537 0.256931
vt 0.088345 0.495306
vt 0.119617 0.337123
vt 0.277118 0.404678
vt 0.243312 0.527411
vt 0.111186 0.673963
vt 0.071469 0.715732
vt 0.081852 0.640160
vt 0.347502 0.362753
vt 0.318129 0.504018
vt 0.040240 0.734674
vt 0.139789 0.739912
vt 0.231072 0.720467
vt 0.228476 0.586425
vt 0.071912 0.752235
vt 0.079273 0.799330
vt 0.455354 0.184496
vt 0.519826 0.241968
vt 0.448481 0.256549
vt 0.645224 0.273221
vt 0.577316 0.244041
vt 0.644549 0.197976
vt 0.582352 0.196363
vt 0.644016 0.155950
vt 0.046165 0.068755
vt 0.174246 0.094383
vt 0.116951 0.280549
vt 0.584166 0.315603
vt 0.550195 0.264523
vt 0.621184 0.368994
vt 0.524896 0.782065
vt 0.444801 0.674600
vt 0.524896 0.595372
vt 0.446563 0.542707
vt 0.425150 0.348310
vt 0.471431 0.345671
vt 0.596239 0.686073
vt 0.542741 0.585421
vt 0.618672 0.590638
vt 0.385018 0.848482
vt 0.680579 0.861191
vt 0.676035 0.762461
vt 0.721316 0.802926
vt 0.345051 0.719022
vt 0.255370 0.630199
vt 0.285299 0.882879
vt 0.142326 0.875505
vt 0.539720 0.216506
vt 0.532466 0.139347
vt 0.485282 0.155782
vt 0.403459 0.059745
vt 0.363891 0.134695
vt 0.407475 0.191759
vt 0.380798 0.095584
vt 0.472403 0.036889
vt 0.415421 0.257359
vt 0.579453 0.885933
vt 0.550899 0.789874
vt 0.600830 0.822360
vt 0.700216 0.749676
vt 0.735673 0.774359
vt 0.596794 0.788119
vt 0.637325 0.793932
vt 0.710817 0.610448
vt 0.784866 0.562628
vt 0.742048 0.627513
vt 0.499114 0.344571
vt 0.643389 0.679114
vt 0.659871 0.594370
vt 0.684171 0.683974
vt 0.717378 0.676486
vt 0.543202 0.672095
vt 0.745996 0.504047
vt 0.631011 0.482914
vt 0.359559 0.621650
vt 0.332245 0.640039
vt 0.106992 0.863260
vt 0.639483 0.887711
vt 0.455353 0.184496
vt 0.448478 0.256552
vt 0.519815 0.241968
vt 0.645223 0.273219
vt 0.644545 0.197972
vt 0.577310 0.244041
vt 0.582351 0.196361
vt 0.644015 0.155947
vt 0.046165 0.068755
vt 0.174246 0.094383
vt 0.135404 0.038366
vt 0.550195 0.264522
vt 0.584166 0.315604
vt 0.377276 0.549945
vt 0.596239 0.686071
vt 0.618672 0.590635
vt 0.542740 0.585413
vt 0.676034 0.762457
vt 0.680580 0.861184
vt 0.721316 0.802918
vt 0.539722 0.216502
vt 0.532466 0.139348
vt 0.485278 0.155782
vt 0.403457 0.059750
vt 0.380797 0.095587
vt 0.363890 0.134695
vt 0.407472 0.191756
vt 0.472404 0.036894
vt 0.415420 0.257359
vt 0.579453 0.885927
vt 0.550898 0.789868
vt 0.512822 0.853133
vt 0.700216 0.749669
vt 0.735673 0.774349
vt 0.596794 0.788109
vt 0.600816 0.822359
vt 0.637325 0.793928
vt 0.710817 0.610445
vt 0.784865 0.562624
vt 0.745995 0.504044
vt 0.499114 0.344573
vt 0.643388 0.679102
vt 0.659867 0.594368
vt 0.684171 0.683965
vt 0.717378 0.676482
vt 0.742047 0.627507
vt 0.543202 0.672085
vt 0.686461 0.485791
vt 0.631011 0.482910
vt 0.639482 0.887708
vt 0.783326 0.862358
vt 0.735668 0.745605
vt 0.832139 0.746083
vt 0.905114 0.714814
vt 0.813621 0.680933
vt 0.900465 0.681365
vt 0.916462 0.620716
vt 0.798224 0.620128
vt 0.905297 0.547680
vt 0.810120 0.547215
vt 0.961131 0.453935
vt 0.769532 0.320696
vt 0.948127 0.321581
vt 0.950683 0.174551
vt 0.781506 0.027818
vt 0.939067 0.028600
vt 0.957256 0.952637
vt 0.799693 0.951855
vt 0.879276 0.790506
vt 0.135404 0.038366
vt 0.512822 0.853141
vt 0.686463 0.485796
vt 0.621183 0.368994
vt 0.808644 0.714335
vt 0.755216 0.452913
vt 0.768441 0.173646
s 1
usemtl Frog_LP
f 4/1/4 1/2/1 9/3/9
f 5/4/5 3/5/3 7/6/7
f 3/5/3 9/3/9 7/6/7
f 8/7/8 5/4/5 7/6/7
f 12/8/12 14/9/14 6/10/6
f 21/11/21 7/6/7 9/3/9
f 10/12/10 8/7/8 7/6/7
f 14/9/14 13/13/13 6/10/6
f 14/9/14 12/8/12 16/14/16
f 12/8/12 15/15/15 16/14/16
f 15/15/15 12/8/12 2/16/2
f 12/8/12 6/10/6 2/16/2
f 19/17/19 13/13/13 14/9/14
f 13/13/13 19/17/19 17/18/17
f 2/16/2 5/4/5 8/7/8
f 27/19/27 26/20/26 31/21/31
f 21/22/21 24/23/24 11/24/11
f 11/24/11 28/25/28 29/26/29
f 23/27/23 9/28/9 1/29/1
f 24/23/24 22/30/22 25/31/25
f 22/30/22 21/22/21 9/32/9
f 26/20/26 24/23/24 25/31/25
f 38/33/38 37/34/37 33/35/33
f 10/12/10 7/6/7 21/11/21
f 32/36/32 11/37/11 29/38/29
f 57/39/57 65/40/65 58/41/58
f 33/35/33 37/34/37 32/36/32
f 36/42/36 37/34/37 38/33/38
f 34/43/34 54/44/54 39/45/39
f 35/46/35 15/15/15 34/47/34
f 15/15/15 2/16/2 34/47/34
f 15/15/15 35/46/35 42/48/42
f 36/42/36 42/48/42 35/46/35
f 18/49/18 16/14/16 15/15/15
f 24/23/24 26/20/26 44/50/44
f 30/51/30 28/25/28 44/50/44
f 45/52/45 47/53/47 30/51/30
f 49/54/49 27/19/27 46/55/46
f 27/19/27 50/56/50 45/52/45
f 27/19/27 44/50/44 26/20/26
f 28/25/28 24/23/24 44/50/44
f 30/51/30 44/50/44 45/52/45
f 48/57/48 30/51/30 47/53/47
f 27/19/27 43/58/43 46/55/46
f 8/59/8 52/60/52 51/61/51
f 39/45/39 55/62/55 40/63/40
f 56/64/56 53/65/53 51/61/51
f 52/60/52 56/64/56 51/61/51
f 62/66/62 70/67/70 64/68/64
f 25/31/25 23/69/23 26/20/26
f 58/41/58 59/70/59 57/39/57
f 59/70/59 54/44/54 53/65/53
f 60/71/60 61/72/61 59/70/59
f 61/72/61 55/62/55 54/44/54
f 62/66/62 63/73/63 61/72/61
f 29/38/29 33/35/33 32/36/32
f 57/39/57 52/60/52 66/74/66
f 65/40/65 57/39/57 66/74/66
f 11/37/11 10/12/10 21/11/21
f 60/71/60 69/75/69 62/66/62
f 68/76/68 60/71/60 58/41/58
f 65/40/65 68/76/68 58/41/58
f 40/77/40 35/46/35 39/78/39
f 19/17/19 14/9/14 16/14/16
f 17/18/17 19/17/19 16/14/16
f 17/18/17 16/14/16 20/79/20
f 34/47/34 39/78/39 35/46/35
f 40/77/40 32/36/32 37/34/37
f 34/43/34 51/61/51 53/65/53
f 51/61/51 2/80/2 8/59/8
f 18/49/18 15/15/15 42/48/42
f 57/39/57 53/65/53 56/64/56
f 26/20/26 23/69/23 31/21/31
f 73/1/73 78/3/78 1/2/1
f 74/4/74 76/6/76 72/5/72
f 72/5/72 78/3/78 73/1/73
f 77/7/77 76/6/76 74/4/74
f 81/8/81 75/10/75 83/9/83
f 90/11/90 78/3/78 76/6/76
f 79/12/79 76/6/76 77/7/77
f 83/9/83 75/10/75 82/13/82
f 83/9/83 85/14/85 81/8/81
f 81/8/81 85/14/85 84/15/84
f 84/15/84 71/16/71 81/8/81
f 81/8/81 71/16/71 75/10/75
f 88/17/88 83/9/83 82/13/82
f 82/13/82 86/18/86 88/17/88
f 74/4/74 71/16/71 77/7/77
f 96/81/96 100/82/100 95/83/95
f 90/84/90 80/85/80 93/86/93
f 97/87/97 80/85/80 98/88/98
f 92/89/92 78/90/78 91/91/91
f 93/86/93 94/92/94 91/93/91
f 91/93/91 90/84/90 93/86/93
f 95/83/95 94/92/94 93/86/93
f 38/33/38 102/35/102 105/34/105
f 79/12/79 90/11/90 76/6/76
f 101/36/101 80/37/80 108/94/108
f 123/95/123 124/96/124 131/97/131
f 102/35/102 101/36/101 105/34/105
f 105/34/105 36/42/36 38/33/38
f 120/98/120 103/99/103 106/100/106
f 104/46/104 103/47/103 84/15/84
f 84/15/84 103/47/103 71/16/71
f 84/15/84 42/48/42 104/46/104
f 36/42/36 104/46/104 42/48/42
f 85/14/85 87/49/87 84/15/84
f 93/86/93 110/101/110 95/83/95
f 99/102/99 110/101/110 97/87/97
f 111/103/111 113/104/113 116/105/116
f 115/106/115 112/107/112 96/81/96
f 96/81/96 116/105/116 115/106/115
f 96/81/96 110/101/110 111/103/111
f 97/87/97 110/101/110 93/86/93
f 99/102/99 111/103/111 110/101/110
f 114/108/114 113/104/113 99/102/99
f 109/109/109 96/81/96 112/107/112
f 77/110/77 118/111/118 79/112/79
f 121/113/121 106/100/106 107/114/107
f 122/115/122 117/116/117 119/117/119
f 118/111/118 117/116/117 122/115/122
f 128/118/128 136/119/136 135/120/135
f 94/92/94 92/121/92 91/93/91
f 124/96/124 125/122/125 126/123/126
f 125/122/125 120/98/120 127/124/127
f 126/123/126 127/124/127 128/118/128
f 127/124/127 121/113/121 129/125/129
f 128/118/128 129/125/129 130/126/130
f 98/38/98 101/36/101 102/35/102
f 123/95/123 118/111/118 122/115/122
f 131/97/131 132/127/132 123/95/123
f 80/37/80 79/12/79 108/94/108
f 126/123/126 135/120/135 133/128/133
f 126/123/126 134/129/134 124/96/124
f 131/97/131 124/96/124 134/129/134
f 104/46/104 107/77/107 106/78/106
f 88/17/88 85/14/85 83/9/83
f 86/18/86 85/14/85 88/17/88
f 86/18/86 89/79/89 85/14/85
f 103/47/103 104/46/104 106/78/106
f 107/77/107 101/36/101 108/94/108
f 103/99/103 117/116/117 71/130/71
f 117/116/117 77/110/77 71/130/71
f 87/49/87 42/48/42 84/15/84
f 123/95/123 119/117/119 125/122/125
f 95/83/95 100/82/100 92/121/92
f 42/131/42 87/132/87 18/133/18
f 18/134/18 89/135/89 20/136/20
f 89/135/89 17/137/17 20/136/20
f 86/138/86 13/139/13 17/137/17
f 82/140/82 6/141/6 13/139/13
f 6/141/6 74/142/74 5/143/5
f 74/142/74 3/144/3 5/143/5
f 3/144/3 73/145/73 4/146/4
f 4/147/4 73/148/73 1/149/1
f 3/5/3 4/1/4 9/3/9
f 2/16/2 6/10/6 5/4/5
f 11/24/11 24/23/24 28/25/28
f 23/27/23 22/150/22 9/28/9
f 22/30/22 24/23/24 21/22/21
f 32/36/32 41/94/41 11/37/11
f 36/42/36 35/46/35 37/34/37
f 34/43/34 53/65/53 54/44/54
f 18/49/18 20/79/20 16/14/16
f 45/52/45 50/56/50 47/53/47
f 27/19/27 49/54/49 50/56/50
f 27/19/27 45/52/45 44/50/44
f 27/19/27 31/21/31 43/58/43
f 8/59/8 10/151/10 52/60/52
f 39/45/39 54/44/54 55/62/55
f 62/66/62 69/75/69 70/67/70
f 25/31/25 22/30/22 23/69/23
f 58/41/58 60/71/60 59/70/59
f 59/70/59 61/72/61 54/44/54
f 60/71/60 62/66/62 61/72/61
f 61/72/61 63/73/63 55/62/55
f 62/66/62 64/68/64 63/73/63
f 57/39/57 56/64/56 52/60/52
f 11/37/11 41/94/41 10/12/10
f 60/71/60 67/152/67 69/75/69
f 68/76/68 67/152/67 60/71/60
f 40/77/40 37/34/37 35/46/35
f 40/77/40 41/94/41 32/36/32
f 34/43/34 2/80/2 51/61/51
f 57/39/57 59/70/59 53/65/53
f 72/5/72 76/6/76 78/3/78
f 74/4/74 75/10/75 71/16/71
f 97/87/97 93/86/93 80/85/80
f 92/89/92 1/29/1 78/90/78
f 91/93/91 78/153/78 90/84/90
f 101/36/101 98/38/98 80/37/80
f 105/34/105 104/46/104 36/42/36
f 120/98/120 119/117/119 103/99/103
f 85/14/85 89/79/89 87/49/87
f 111/103/111 99/102/99 113/104/113
f 96/81/96 111/103/111 116/105/116
f 96/81/96 95/83/95 110/101/110
f 109/109/109 100/82/100 96/81/96
f 77/110/77 117/116/117 118/111/118
f 121/113/121 120/98/120 106/100/106
f 128/118/128 130/126/130 136/119/136
f 94/92/94 95/83/95 92/121/92
f 124/96/124 123/95/123 125/122/125
f 125/122/125 119/117/119 120/98/120
f 126/123/126 125/122/125 127/124/127
f 127/124/127 120/98/120 121/113/121
f 128/118/128 127/124/127 129/125/129
f 123/95/123 132/127/132 118/111/118
f 80/37/80 90/11/90 79/12/79
f 126/123/126 128/118/128 135/120/135
f 126/123/126 133/128/133 134/129/134
f 104/46/104 105/34/105 107/77/107
f 107/77/107 105/34/105 101/36/101
f 103/99/103 119/117/119 117/116/117
f 123/95/123 122/115/122 119/117/119
f 18/134/18 87/154/87 89/135/89
f 89/135/89 86/138/86 17/137/17
f 86/138/86 82/140/82 13/139/13
f 82/140/82 75/155/75 6/141/6
f 6/141/6 75/155/75 74/142/74
f 74/142/74 72/156/72 3/144/3
f 3/144/3 72/156/72 73/145/73
o Cylinder.002
v 0.012368 0.046034 0.005506
v 0.021105 0.062228 0.017815
v 0.017085 0.042058 0.009624
v 0.014125 0.041269 0.016378
v 0.007580 0.044756 0.016435
v 0.006494 0.047702 0.009716
v 0.018928 0.058398 0.002231
v 0.029081 0.049839 0.011095
v 0.022711 0.048138 0.025636
v 0.008621 0.055646 0.025759
v 0.006283 0.061987 0.011294
vn 0.2559 0.4937 -0.8311
vn 0.4512 0.8419 0.2961
vn 0.9724 -0.1103 -0.2055
vn 0.5228 -0.2304 0.8207
vn -0.4716 0.2995 0.8294
vn -0.6366 0.7471 -0.1915
vn 0.4507 0.8502 -0.2719
vn 0.8579 0.5070 0.0836
vn 0.6024 0.4388 0.6668
vn 0.0373 0.7399 0.6717
vn -0.0564 0.9942 0.0915
vt 0.758311 0.315715
vt 0.735274 0.460120
vt 0.709323 0.316211
vt 0.759569 0.029738
vt 0.736118 0.174075
vt 0.710580 0.030092
vt 0.732607 0.187813
vt 0.704830 0.301098
vt 0.683637 0.186399
vt 0.574570 0.135531
vt 0.522944 0.041837
vt 0.628402 0.043086
vt 0.701405 0.313194
vt 0.681346 0.458042
vt 0.652437 0.314698
vt 0.701585 0.033843
vt 0.675894 0.177798
vt 0.652596 0.033436
vt 0.518570 0.390350
vt 0.609112 0.392327
vt 0.545845 0.476708
vt 0.894403 0.742256
vt 0.984945 0.744234
vt 0.921677 0.828615
vt 0.222404 0.109658
vt 0.170547 0.035411
vt 0.276005 0.036661
vt 0.736844 0.971096
vt 0.685109 0.896765
vt 0.790565 0.898187
s 1
usemtl Frog_LP
f 137/157/137 138/158/138 139/159/139
f 139/160/139 138/161/138 140/162/140
f 140/163/140 138/164/138 141/165/141
f 138/166/138 146/167/146 145/168/145
f 141/169/141 138/170/138 142/171/142
f 142/172/142 138/173/138 137/174/137
f 138/175/138 147/176/147 146/177/146
f 138/178/138 145/179/145 144/180/144
f 138/181/138 143/182/143 147/183/147
f 138/184/138 144/185/144 143/186/143
o Cylinder.003
v -0.011564 0.048111 -0.007717
v -0.016963 0.072587 0.002477
v -0.004029 0.049425 -0.002851
v -0.006058 0.048058 0.005878
v -0.014846 0.045900 0.006407
v -0.018249 0.045932 -0.001996
v -0.015786 0.063499 -0.015069
v 0.000434 0.066328 -0.004593
v -0.003933 0.063386 0.014198
v -0.022853 0.058738 0.015336
v -0.030178 0.058808 -0.002752
vn -0.1425 0.3536 -0.9245
vn -0.2319 0.9678 0.0976
vn 0.7941 0.5170 -0.3196
vn 0.5419 0.3471 0.7654
vn -0.5505 0.0787 0.8311
vn -0.9735 0.0828 -0.2133
vn -0.2379 0.8559 -0.4593
vn 0.2943 0.9487 -0.1155
vn 0.1510 0.8522 0.5010
vn -0.4697 0.6997 0.5384
vn -0.7101 0.7020 -0.0551
vt 0.758311 0.315715
vt 0.735274 0.460120
vt 0.709323 0.316211
vt 0.759569 0.029738
vt 0.736118 0.174075
vt 0.710580 0.030092
vt 0.732607 0.187813
vt 0.704830 0.301098
vt 0.683637 0.186399
vt 0.574570 0.135531
vt 0.522944 0.041837
vt 0.628402 0.043086
vt 0.701405 0.313194
vt 0.681346 0.458042
vt 0.652437 0.314698
vt 0.701585 0.033843
vt 0.675894 0.177798
vt 0.652596 0.033436
vt 0.518570 0.390350
vt 0.609112 0.392327
vt 0.545845 0.476708
vt 0.894403 0.742256
vt 0.984945 0.744234
vt 0.921677 0.828615
vt 0.222404 0.109658
vt 0.170547 0.035411
vt 0.276005 0.036661
vt 0.736844 0.971096
vt 0.685109 0.896765
vt 0.790565 0.898187
s 1
usemtl Frog_LP
f 148/187/148 149/188/149 150/189/150
f 150/190/150 149/191/149 151/192/151
f 151/193/151 149/194/149 152/195/152
f 149/196/149 157/197/157 156/198/156
f 152/199/152 149/200/149 153/201/153
f 153/202/153 149/203/149 148/204/148
f 149/205/149 158/206/158 157/207/157
f 149/208/149 156/209/156 155/210/155
f 149/211/149 154/212/154 158/213/158
f 149/214/149 155/215/155 154/216/154
o Cube.007
v -0.010916 0.057937 -0.024065
v -0.008678 0.063092 -0.023868
v -0.006458 0.058581 -0.026386
v -0.003436 0.042159 -0.019603
v -0.008832 0.059355 -0.019670
v -0.004374 0.059998 -0.021991
vn -0.4753 0.2388 -0.8468
vn 0.6393 0.5899 -0.4933
vn 0.2348 0.7218 0.6511
vn -0.8798 0.3707 0.2976
vn 0.4410 0.1418 0.8863
vn -0.8371 -0.2608 0.4810
vn 0.9047 -0.0094 -0.4259
vn -0.3733 -0.4120 -0.8312
vt 0.013223 0.312891
vt 0.053159 0.255471
vt 0.088965 0.315553
vt 0.384816 0.939677
vt 0.310438 0.900410
vt 0.386208 0.863900
vt 0.641561 0.916313
vt 0.701547 0.952280
vt 0.644021 0.992063
vt 0.085718 0.955145
vt 0.011339 0.915878
vt 0.087110 0.879369
vt 0.376023 0.962851
vt 0.295345 0.921095
vt 0.594443 0.905626
vt 0.041719 0.580966
s 0
usemtl Frog_LP
f 159/217/159 160/218/159 161/219/159
f 161/220/160 160/221/160 164/222/160
f 164/223/161 160/224/161 163/225/161
f 163/226/162 160/227/162 159/228/162
f 164/223/163 163/225/163 162/229/163
f 163/226/164 159/228/164 162/230/164
f 161/220/165 164/222/165 162/231/165
f 159/217/166 161/219/166 162/232/166
o Cylinder.001
v 0.009087 0.051199 -0.010177
v 0.018062 0.060226 -0.009379
v 0.011498 0.050111 -0.013533
v 0.014994 0.048141 -0.012063
v 0.014743 0.048013 -0.007800
v 0.011093 0.049903 -0.006634
v 0.008780 0.059471 -0.009946
v 0.013969 0.057127 -0.017170
v 0.021495 0.052888 -0.014007
v 0.020956 0.052612 -0.004829
v 0.013098 0.056681 -0.002319
vn -0.7081 0.7058 -0.0203
vn 0.4727 0.8795 0.0542
vn -0.0723 0.4187 -0.9052
vn 0.8496 -0.1007 -0.5178
vn 0.7836 -0.1345 0.6066
vn -0.1791 0.3640 0.9140
vn -0.0825 0.9963 0.0251
vn 0.2788 0.8331 -0.4777
vn 0.8027 0.5380 -0.2576
vn 0.7652 0.5187 0.3814
vn 0.2181 0.8020 0.5561
vt 0.758311 0.315715
vt 0.735274 0.460120
vt 0.709323 0.316211
vt 0.759569 0.029738
vt 0.736118 0.174075
vt 0.710580 0.030092
vt 0.732607 0.187813
vt 0.704830 0.301098
vt 0.683637 0.186399
vt 0.574570 0.135531
vt 0.522944 0.041837
vt 0.628402 0.043086
vt 0.701405 0.313194
vt 0.681346 0.458042
vt 0.652437 0.314698
vt 0.701585 0.033843
vt 0.675894 0.177798
vt 0.652596 0.033436
vt 0.518570 0.390350
vt 0.609112 0.392327
vt 0.545845 0.476708
vt 0.894403 0.742256
vt 0.984945 0.744234
vt 0.921677 0.828615
vt 0.222404 0.109658
vt 0.170547 0.035411
vt 0.276005 0.036661
vt 0.736844 0.971096
vt 0.685109 0.896765
vt 0.790565 0.898187
s 1
usemtl Frog_LP
f 165/233/167 166/234/168 167/235/169
f 167/236/169 166/237/168 168/238/170
f 168/239/170 166/240/168 169/241/171
f 166/242/168 174/243/176 173/244/175
f 169/245/171 166/246/168 170/247/172
f 170/248/172 166/249/168 165/250/167
f 166/251/168 175/252/177 174/253/176
f 166/254/168 173/255/175 172/256/174
f 166/257/168 171/258/173 175/259/177
f 166/260/168 172/261/174 171/262/173
o Cube.001
v 0.000316 0.058142 -0.031994
v 0.000405 0.061373 -0.030705
v 0.002559 0.058763 -0.029894
v 0.000088 0.048420 -0.026536
v -0.001873 0.058878 -0.029874
v 0.000370 0.059499 -0.027773
vn 0.6146 0.2776 -0.7384
vn 0.6294 0.6513 0.4238
vn -0.5911 0.6829 0.4292
vn -0.6059 0.3092 -0.7330
vn -0.6945 0.0973 0.7128
vn -0.7115 -0.3313 -0.6197
vn 0.7049 0.0610 0.7067
vn 0.6879 -0.3675 -0.6259
vt 0.013223 0.312891
vt 0.053159 0.255471
vt 0.088965 0.315553
vt 0.384816 0.939677
vt 0.310438 0.900410
vt 0.386208 0.863900
vt 0.641561 0.916313
vt 0.701547 0.952280
vt 0.644021 0.992063
vt 0.085718 0.955145
vt 0.011339 0.915878
vt 0.087110 0.879369
vt 0.376023 0.962851
vt 0.295345 0.921095
vt 0.594443 0.905626
vt 0.041719 0.580966
s 0
usemtl Frog_LP
f 176/263/178 177/264/178 178/265/178
f 178/266/179 177/267/179 181/268/179
f 181/269/180 177/270/180 180/271/180
f 180/272/181 177/273/181 176/274/181
f 181/269/182 180/271/182 179/275/182
f 180/272/183 176/274/183 179/276/183
f 178/266/184 181/268/184 179/277/184
f 176/263/185 178/265/185 179/278/185
o Cube.002
v 0.007652 0.058884 -0.024494
v 0.007744 0.064225 -0.021959
v 0.010308 0.059313 -0.019895
v 0.002676 0.042212 -0.016978
v 0.003184 0.060463 -0.022060
v 0.005840 0.060892 -0.017461
vn 0.8347 0.2243 -0.5030
vn 0.5410 0.5498 0.6365
vn -0.6135 0.7362 0.2857
vn -0.3198 0.4107 -0.8538
vn -0.8613 0.1584 0.4827
vn -0.5246 -0.2148 -0.8238
vn 0.4624 -0.0554 0.8849
vn 0.7991 -0.4286 -0.4216
vt 0.013223 0.312891
vt 0.053159 0.255471
vt 0.088965 0.315553
vt 0.384816 0.939677
vt 0.310438 0.900410
vt 0.386208 0.863900
vt 0.641561 0.916313
vt 0.701547 0.952280
vt 0.644021 0.992063
vt 0.085718 0.955145
vt 0.011339 0.915878
vt 0.087110 0.879369
vt 0.376023 0.962851
vt 0.295345 0.921095
vt 0.594443 0.905626
vt 0.041719 0.580966
s 0
usemtl Frog_LP
f 182/279/186 183/280/186 184/281/186
f 184/282/187 183/283/187 187/284/187
f 187/285/188 183/286/188 186/287/188
f 186/288/189 183/289/189 182/290/189
f 187/285/190 186/287/190 185/291/190
f 186/288/191 182/290/191 185/292/191
f 184/282/192 187/284/192 185/293/192
f 182/279/193 184/281/193 185/294/193
o Cube.004
v -0.006993 0.058310 -0.013342
v -0.004762 0.063725 -0.016076
v -0.005205 0.057914 -0.018871
v 0.001959 0.039663 -0.012181
v -0.001671 0.060055 -0.011746
v 0.000117 0.059659 -0.017275
vn -0.9231 0.2216 -0.3144
vn 0.1309 0.4217 -0.8973
vn 0.6548 0.7389 0.1589
vn -0.3992 0.5389 0.7418
vn 0.9423 0.1615 0.2932
vn -0.2662 -0.0679 0.9615
vn 0.3416 -0.2023 -0.9178
vn -0.8668 -0.4317 -0.2495
vt 0.013223 0.312891
vt 0.053159 0.255471
vt 0.088965 0.315553
vt 0.384816 0.939677
vt 0.310438 0.900410
vt 0.386208 0.863900
vt 0.641561 0.916313
vt 0.701547 0.952280
vt 0.644021 0.992063
vt 0.085718 0.955145
vt 0.011339 0.915878
vt 0.087110 0.879369
vt 0.376023 0.962851
vt 0.295345 0.921095
vt 0.594443 0.905626
vt 0.041719 0.580966
s 0
usemtl Frog_LP
f 188/295/194 189/296/194 190/297/194
f 190/298/195 189/299/195 193/300/195
f 193/301/196 189/302/196 192/303/196
f 192/304/197 189/305/197 188/306/197
f 193/301/198 192/303/198 191/307/198
f 192/304/199 188/306/199 191/308/199
f 190/298/200 193/300/200 191/309/200
f 188/295/201 190/297/201 191/310/201
o Cube.005
v 0.006013 0.054549 -0.012523
v 0.005322 0.060241 -0.010354
v 0.008323 0.055644 -0.007626
v 0.002095 0.037419 -0.003730
v 0.001050 0.055846 -0.010472
v 0.003360 0.056941 -0.005575
vn 0.8435 0.2776 -0.4599
vn 0.4289 0.6513 0.6259
vn -0.7076 0.6829 0.1812
vn -0.2931 0.3092 -0.9047
vn -0.9084 0.0973 0.4067
vn -0.4330 -0.3313 -0.8383
vn 0.3948 0.0610 0.9167
vn 0.8701 -0.3675 -0.3283
vt 0.013223 0.312891
vt 0.053159 0.255471
vt 0.088965 0.315553
vt 0.384816 0.939677
vt 0.310438 0.900410
vt 0.386208 0.863900
vt 0.641561 0.916313
vt 0.701547 0.952280
vt 0.644021 0.992063
vt 0.085718 0.955145
vt 0.011339 0.915878
vt 0.087110 0.879369
vt 0.376023 0.962851
vt 0.295345 0.921095
vt 0.594443 0.905626
vt 0.041719 0.580966
s 0
usemtl Frog_LP
f 194/311/202 195/312/202 196/313/202
f 196/314/203 195/315/203 199/316/203
f 199/317/204 195/318/204 198/319/204
f 198/320/205 195/321/205 194/322/205
f 199/317/206 198/319/206 197/323/206
f 198/320/207 194/322/207 197/324/207
f 196/314/208 199/316/208 197/325/208
f 194/311/209 196/313/209 197/326/209
o Cube.008
v 0.013133 0.054166 -0.002915
v 0.013075 0.060982 0.001022
v 0.015761 0.054074 0.003672
v 0.004155 0.031679 0.004173
v 0.006874 0.056343 -0.000387
v 0.009502 0.056251 0.006200
vn 0.9081 0.2153 -0.3593
vn 0.4661 0.4691 0.7501
vn -0.6157 0.7453 0.2560
vn -0.1737 0.4914 -0.8534
vn -0.9147 0.1687 0.3673
vn -0.4079 -0.1223 -0.9048
vn 0.3257 -0.1479 0.9338
vn 0.8324 -0.4389 -0.3382
vt 0.013223 0.312891
vt 0.053159 0.255471
vt 0.088965 0.315553
vt 0.384816 0.939677
vt 0.310438 0.900410
vt 0.386208 0.863900
vt 0.641561 0.916313
vt 0.701547 0.952280
vt 0.644021 0.992063
vt 0.085718 0.955145
vt 0.011339 0.915878
vt 0.087110 0.879369
vt 0.376023 0.962851
vt 0.295345 0.921095
vt 0.594443 0.905626
vt 0.041719 0.580966
s 0
usemtl Frog_LP
f 200/327/210 201/328/210 202/329/210
f 202/330/211 201/331/211 205/332/211
f 205/333/212 201/334/212 204/335/212
f 204/336/213 201/337/213 200/338/213
f 205/333/214 204/335/214 203/339/214
f 204/336/215 200/338/215 203/340/215
f 202/330/216 205/332/216 203/341/216
f 200/327/217 202/329/217 203/342/217
o Cube.009
v -0.000712 0.054391 0.017059
v 0.000182 0.061665 0.014291
v -0.003638 0.055790 0.010790
v 0.004340 0.032501 0.005844
v 0.005641 0.056049 0.014464
v 0.002714 0.057448 0.008194
vn -0.8453 0.2776 0.4565
vn -0.4264 0.6513 -0.6277
vn 0.7084 0.6829 -0.1783
vn 0.2894 0.3092 0.9059
vn 0.9100 0.0973 -0.4030
vn 0.4296 -0.3313 0.8401
vn -0.3911 0.0610 -0.9183
vn -0.8715 -0.3675 0.3248
vt 0.013223 0.312891
vt 0.053159 0.255471
vt 0.088965 0.315553
vt 0.384816 0.939677
vt 0.310438 0.900410
vt 0.386208 0.863900
vt 0.641561 0.916313
vt 0.701547 0.952280
vt 0.644021 0.992063
vt 0.085718 0.955145
vt 0.011339 0.915878
vt 0.087110 0.879369
vt 0.376023 0.962851
vt 0.295345 0.921095
vt 0.594443 0.905626
vt 0.041719 0.580966
s 0
usemtl Frog_LP
f 206/343/218 207/344/218 208/345/218
f 208/346/219 207/347/219 211/348/219
f 211/349/220 207/350/220 210/351/220
f 210/352/221 207/353/221 206/354/221
f 211/349/222 210/351/222 209/355/222
f 210/352/223 206/354/223 209/356/223
f 208/346/224 211/348/224 209/357/224
f 206/343/225 208/345/225 209/358/225
o Cube.010
v -0.000335 0.057430 -0.003988
v -0.002812 0.064006 -0.000050
v 0.003647 0.059526 0.001706
v 0.005198 0.034021 0.005385
v -0.006116 0.056670 0.000335
v -0.002133 0.058766 0.006029
vn 0.5593 0.5707 -0.6012
vn 0.3454 0.7296 0.5902
vn -0.8158 0.3898 0.4271
vn -0.6020 0.2310 -0.7644
vn -0.7523 -0.2388 0.6141
vn -0.5071 -0.4210 -0.7521
vn 0.5793 0.1508 0.8011
vn 0.8244 -0.0314 -0.5651
vt 0.013223 0.312891
vt 0.053159 0.255471
vt 0.088965 0.315553
vt 0.384816 0.939677
vt 0.310438 0.900410
vt 0.386208 0.863900
vt 0.641561 0.916313
vt 0.701547 0.952280
vt 0.644021 0.992063
vt 0.085718 0.955145
vt 0.011339 0.915878
vt 0.087110 0.879369
vt 0.376023 0.962851
vt 0.295345 0.921095
vt 0.594443 0.905626
vt 0.041719 0.580966
s 0
usemtl Frog_LP
f 212/359/226 213/360/226 214/361/226
f 214/362/227 213/363/227 217/364/227
f 217/365/228 213/366/228 216/367/228
f 216/368/229 213/369/229 212/370/229
f 217/365/230 216/367/230 215/371/230
f 216/368/231 212/370/231 215/372/231
f 214/362/232 217/364/232 215/373/232
f 212/359/233 214/361/233 215/374/233
