# Blender 4.2.0
# www.blender.org
mtllib Sphere.mtl
o Sphere
v 0.000000 0.382683 -0.923880
v 0.000000 -0.000000 -1.000000
v 0.000000 -0.382683 -0.923880
v 0.000000 -0.923880 -0.382683
v 0.146447 0.923880 -0.353553
v 0.270598 0.707107 -0.653281
v 0.353553 0.382683 -0.853553
v 0.382683 -0.000000 -0.923880
v 0.353553 -0.382683 -0.853553
v 0.270598 -0.707107 -0.653281
v 0.146447 -0.923880 -0.353553
v 0.270598 0.923880 -0.270598
v 0.500000 0.707107 -0.500000
v 0.653282 0.382683 -0.653281
v 0.707107 -0.000000 -0.707107
v 0.653282 -0.382683 -0.653281
v 0.500000 -0.707107 -0.500000
v 0.270598 -0.923880 -0.270598
v 0.353553 0.923880 -0.146447
v 0.653281 0.707107 -0.270598
v 0.853553 0.382683 -0.353553
v 0.923880 -0.000000 -0.382683
v 0.853553 -0.382683 -0.353553
v 0.653281 -0.707107 -0.270598
v 0.353553 -0.923880 -0.146447
v 0.382683 0.923880 -0.000000
v 0.707107 0.707107 -0.000000
v 0.923880 0.382683 -0.000000
v 1.000000 0.000000 0.000000
v 0.923880 -0.382683 0.000000
v 0.707107 -0.707107 0.000000
v 0.382683 -0.923880 0.000000
v 0.353553 0.923880 0.146447
v 0.653281 0.707107 0.270598
v 0.853553 0.382683 0.353554
v 0.923879 0.000000 0.382684
v 0.853553 -0.382683 0.353554
v 0.653281 -0.707107 0.270598
v 0.353553 -0.923880 0.146447
v 0.270598 0.923880 0.270598
v 0.500000 0.707107 0.500000
v 0.653281 0.382683 0.653282
v 0.707107 0.000000 0.707107
v 0.653281 -0.382683 0.653282
v 0.500000 -0.707107 0.500000
v 0.270598 -0.923880 0.270598
v 0.146447 0.923880 0.353553
v 0.270598 0.707107 0.653281
v 0.353553 0.382683 0.853553
v 0.382683 0.000000 0.923880
v 0.353553 -0.382683 0.853553
v 0.270598 -0.707107 0.653281
v 0.146447 -0.923880 0.353553
v 0.000000 0.923880 0.382683
v 0.000000 0.707107 0.707107
v 0.000000 0.382683 0.923879
v 0.000000 0.000000 1.000000
v 0.000000 -0.382683 0.923879
v 0.000000 -0.707107 0.707107
v 0.000000 -0.923880 0.382683
v 0.000000 -1.000000 0.000000
v 0.000000 1.000000 -0.000000
v -0.146447 0.923880 0.353553
v -0.270598 0.707107 0.653281
v -0.353554 0.382683 0.853553
v -0.382684 0.000000 0.923879
v -0.353554 -0.382683 0.853553
v -0.270598 -0.707107 0.653281
v -0.146447 -0.923880 0.353553
v -0.270598 0.923880 0.270598
v -0.500000 0.707107 0.500000
v -0.653282 0.382683 0.653281
v -0.707107 0.000000 0.707106
v -0.653282 -0.382683 0.653281
v -0.500000 -0.707107 0.500000
v -0.270598 -0.923880 0.270598
v -0.353553 0.923880 0.146446
v -0.653281 0.707107 0.270598
v -0.853553 0.382683 0.353553
v -0.923880 0.000000 0.382683
v -0.853553 -0.382683 0.353553
v -0.653281 -0.707107 0.270598
v -0.353553 -0.923880 0.146446
v -0.382683 0.923880 -0.000000
v -0.707107 0.707107 -0.000000
v -0.923879 0.382683 -0.000000
v -1.000000 -0.000000 -0.000001
v -0.923879 -0.382683 0.000000
v -0.707107 -0.707107 0.000000
v -0.382683 -0.923880 0.000000
v -0.353553 0.923880 -0.146447
v -0.653281 0.707107 -0.270598
v -0.853553 0.382683 -0.353554
v -0.923879 -0.000000 -0.382684
v -0.853553 -0.382683 -0.353554
v -0.653281 -0.707107 -0.270598
v -0.353553 -0.923880 -0.146447
v -0.270598 0.923880 -0.270598
v -0.500000 0.707107 -0.500000
v -0.653281 0.382683 -0.653282
v -0.707106 -0.000000 -0.707107
v -0.653281 -0.382683 -0.653282
v -0.500000 -0.707107 -0.500000
v -0.270598 -0.923880 -0.270598
v -0.146446 0.923880 -0.353554
v -0.270598 0.707107 -0.653281
v -0.353553 0.382683 -0.853553
v -0.382683 -0.000000 -0.923880
v -0.353553 -0.382683 -0.853553
v -0.270598 -0.707107 -0.653281
v -0.146446 -0.923880 -0.353554
v 0.000000 0.923880 -0.382683
v 0.000000 0.707107 -0.707107
v 0.000000 -0.707107 -0.707107
vn -0.0000 0.3744 -0.9273
vn 0.3827 -0.0000 -0.9239
vn -0.0000 -0.0000 -1.0000
vn -0.0000 0.9152 -0.4031
vn 0.2751 0.6952 -0.6641
vn -0.0000 0.6952 -0.7189
vn -0.0000 -0.9152 -0.4031
vn 0.2751 -0.6952 -0.6641
vn 0.1543 -0.9152 -0.3724
vn -0.0000 -0.3744 -0.9273
vn 0.3549 -0.3744 -0.8567
vn 0.3549 0.3744 -0.8567
vn -0.0000 1.0000 -0.0000
vn 0.1543 0.9152 -0.3724
vn -0.0000 -1.0000 -0.0000
vn -0.0000 -0.6952 -0.7189
vn 0.2850 -0.9152 -0.2850
vn 0.7071 -0.0000 -0.7071
vn 0.6557 -0.3744 -0.6557
vn 0.5083 0.6952 -0.5083
vn 0.6557 0.3744 -0.6557
vn 0.2850 0.9152 -0.2850
vn 0.5083 -0.6952 -0.5083
vn 0.3724 0.9152 -0.1543
vn 0.3724 -0.9152 -0.1543
vn 0.6641 -0.6952 -0.2751
vn 0.9239 -0.0000 -0.3827
vn 0.6641 0.6952 -0.2751
vn 0.8567 -0.3744 -0.3549
vn 0.8567 0.3744 -0.3549
vn 0.7189 -0.6952 -0.0000
vn 0.9273 0.3744 -0.0000
vn 1.0000 -0.0000 -0.0000
vn 0.4031 0.9152 -0.0000
vn 0.7189 0.6952 -0.0000
vn 0.4031 -0.9152 -0.0000
vn 0.9273 -0.3744 -0.0000
vn 0.6641 -0.6952 0.2751
vn 0.3724 -0.9152 0.1543
vn 0.9239 -0.0000 0.3827
vn 0.8567 -0.3744 0.3549
vn 0.8567 0.3744 0.3549
vn 0.3724 0.9152 0.1543
vn 0.6641 0.6952 0.2751
vn 0.7071 -0.0000 0.7071
vn 0.6557 -0.3744 0.6557
vn 0.5083 0.6952 0.5083
vn 0.6557 0.3744 0.6557
vn 0.2850 0.9152 0.2850
vn 0.2850 -0.9152 0.2850
vn 0.5083 -0.6952 0.5083
vn 0.1543 -0.9152 0.3724
vn 0.2751 -0.6952 0.6641
vn 0.3827 -0.0000 0.9239
vn 0.2751 0.6952 0.6641
vn 0.3549 -0.3744 0.8567
vn 0.3549 0.3744 0.8567
vn 0.1543 0.9152 0.3724
vn -0.0000 0.3744 0.9273
vn -0.0000 -0.0000 1.0000
vn -0.0000 0.9152 0.4031
vn -0.0000 0.6952 0.7189
vn -0.0000 -0.9152 0.4031
vn -0.0000 -0.3744 0.9273
vn -0.0000 -0.6952 0.7189
vn -0.2751 -0.6952 0.6641
vn -0.1543 -0.9152 0.3724
vn -0.3827 -0.0000 0.9239
vn -0.3549 -0.3744 0.8567
vn -0.2751 0.6952 0.6641
vn -0.3549 0.3744 0.8567
vn -0.1543 0.9152 0.3724
vn -0.5083 0.6952 0.5083
vn -0.6557 0.3744 0.6557
vn -0.2850 0.9152 0.2850
vn -0.2850 -0.9152 0.2850
vn -0.5083 -0.6952 0.5083
vn -0.7071 -0.0000 0.7071
vn -0.6557 -0.3744 0.6557
vn -0.3724 -0.9152 0.1543
vn -0.6641 -0.6952 0.2751
vn -0.8567 0.3744 0.3549
vn -0.9239 -0.0000 0.3827
vn -0.6641 0.6952 0.2751
vn -0.8567 -0.3744 0.3549
vn -0.3724 0.9152 0.1543
vn -0.4031 0.9152 -0.0000
vn -0.7189 0.6952 -0.0000
vn -0.4031 -0.9152 -0.0000
vn -0.9273 -0.3744 -0.0000
vn -0.9273 0.3744 -0.0000
vn -0.7189 -0.6952 -0.0000
vn -1.0000 -0.0000 -0.0000
vn -0.6641 -0.6952 -0.2751
vn -0.3724 -0.9152 -0.1543
vn -0.8567 -0.3744 -0.3549
vn -0.6641 0.6952 -0.2751
vn -0.8567 0.3744 -0.3549
vn -0.3724 0.9152 -0.1543
vn -0.9239 -0.0000 -0.3827
vn -0.2850 0.9152 -0.2850
vn -0.2850 -0.9152 -0.2850
vn -0.5083 -0.6952 -0.5083
vn -0.7071 -0.0000 -0.7071
vn -0.5083 0.6952 -0.5083
vn -0.6557 -0.3744 -0.6557
vn -0.6557 0.3744 -0.6557
vn -0.2751 -0.6952 -0.6641
vn -0.3549 0.3744 -0.8567
vn -0.3827 -0.0000 -0.9239
vn -0.2751 0.6952 -0.6641
vn -0.1543 -0.9152 -0.3724
vn -0.3549 -0.3744 -0.8567
vn -0.1543 0.9152 -0.3724
vt 0.750000 0.625000
vt 0.687500 0.500000
vt 0.750000 0.500000
vt 0.750000 0.875000
vt 0.687500 0.750000
vt 0.750000 0.750000
vt 0.750000 0.125000
vt 0.687500 0.250000
vt 0.687500 0.125000
vt 0.750000 0.375000
vt 0.687500 0.375000
vt 0.687500 0.625000
vt 0.718750 1.000000
vt 0.687500 0.875000
vt 0.718750 0.000000
vt 0.750000 0.250000
vt 0.625000 0.125000
vt 0.625000 0.500000
vt 0.625000 0.375000
vt 0.625000 0.750000
vt 0.625000 0.625000
vt 0.656250 1.000000
vt 0.625000 0.875000
vt 0.656250 0.000000
vt 0.625000 0.250000
vt 0.593750 1.000000
vt 0.562500 0.875000
vt 0.593750 0.000000
vt 0.562500 0.125000
vt 0.562500 0.250000
vt 0.562500 0.500000
vt 0.562500 0.750000
vt 0.562500 0.375000
vt 0.562500 0.625000
vt 0.500000 0.250000
vt 0.500000 0.625000
vt 0.500000 0.500000
vt 0.500000 0.875000
vt 0.500000 0.750000
vt 0.500000 0.125000
vt 0.500000 0.375000
vt 0.531250 1.000000
vt 0.531250 0.000000
vt 0.437500 0.250000
vt 0.437500 0.125000
vt 0.437500 0.500000
vt 0.437500 0.375000
vt 0.437500 0.625000
vt 0.468750 1.000000
vt 0.437500 0.875000
vt 0.468750 0.000000
vt 0.437500 0.750000
vt 0.375000 0.500000
vt 0.375000 0.375000
vt 0.375000 0.750000
vt 0.375000 0.625000
vt 0.406250 1.000000
vt 0.375000 0.875000
vt 0.406250 0.000000
vt 0.375000 0.125000
vt 0.375000 0.250000
vt 0.343750 0.000000
vt 0.312500 0.125000
vt 0.312500 0.250000
vt 0.312500 0.500000
vt 0.312500 0.750000
vt 0.312500 0.375000
vt 0.312500 0.625000
vt 0.343750 1.000000
vt 0.312500 0.875000
vt 0.250000 0.625000
vt 0.250000 0.500000
vt 0.250000 0.875000
vt 0.250000 0.750000
vt 0.250000 0.125000
vt 0.250000 0.375000
vt 0.281250 1.000000
vt 0.281250 0.000000
vt 0.250000 0.250000
vt 0.187500 0.250000
vt 0.187500 0.125000
vt 0.187500 0.500000
vt 0.187500 0.375000
vt 0.187500 0.750000
vt 0.187500 0.625000
vt 0.218750 1.000000
vt 0.187500 0.875000
vt 0.218750 0.000000
vt 0.125000 0.750000
vt 0.125000 0.625000
vt 0.156250 1.000000
vt 0.125000 0.875000
vt 0.156250 0.000000
vt 0.125000 0.125000
vt 0.125000 0.250000
vt 0.125000 0.500000
vt 0.125000 0.375000
vt 0.093750 0.000000
vt 0.062500 0.125000
vt 0.062500 0.250000
vt 0.062500 0.625000
vt 0.062500 0.500000
vt 0.062500 0.750000
vt 0.062500 0.375000
vt 0.093750 1.000000
vt 0.062500 0.875000
vt 0.000000 0.875000
vt 0.000000 0.750000
vt 0.000000 0.125000
vt 0.000000 0.375000
vt 0.000000 0.625000
vt 0.031250 1.000000
vt 0.031250 0.000000
vt 0.000000 0.250000
vt 0.000000 0.500000
vt 1.000000 0.125000
vt 0.937500 0.250000
vt 0.937500 0.125000
vt 1.000000 0.500000
vt 0.937500 0.375000
vt 1.000000 0.375000
vt 1.000000 0.625000
vt 0.937500 0.750000
vt 0.937500 0.625000
vt 1.000000 0.875000
vt 0.968750 1.000000
vt 0.937500 0.875000
vt 0.968750 0.000000
vt 1.000000 0.250000
vt 0.937500 0.500000
vt 1.000000 0.750000
vt 0.906250 1.000000
vt 0.875000 0.875000
vt 0.906250 0.000000
vt 0.875000 0.125000
vt 0.875000 0.250000
vt 0.875000 0.500000
vt 0.875000 0.750000
vt 0.875000 0.375000
vt 0.875000 0.625000
vt 0.812500 0.250000
vt 0.812500 0.625000
vt 0.812500 0.500000
vt 0.812500 0.750000
vt 0.812500 0.125000
vt 0.812500 0.375000
vt 0.843750 1.000000
vt 0.812500 0.875000
vt 0.843750 0.000000
vt 0.781250 1.000000
vt 0.781250 0.000000
s 1
f 1/1/1 8/2/2 2/3/3
f 112/4/4 6/5/5 113/6/6
f 4/7/7 10/8/8 11/9/9
f 3/10/10 8/2/2 9/11/11
f 113/6/6 7/12/12 1/1/1
f 112/4/4 62/13/13 5/14/14
f 61/15/15 4/7/7 11/9/9
f 114/16/16 9/11/11 10/8/8
f 10/8/8 18/17/17 11/9/9
f 9/11/11 15/18/18 16/19/19
f 7/12/12 13/20/20 14/21/21
f 5/14/14 62/22/13 12/23/22
f 61/24/15 11/9/9 18/17/17
f 9/11/11 17/25/23 10/8/8
f 7/12/12 15/18/18 8/2/2
f 6/5/5 12/23/22 13/20/20
f 12/23/22 62/26/13 19/27/24
f 61/28/15 18/17/17 25/29/25
f 16/19/19 24/30/26 17/25/23
f 14/21/21 22/31/27 15/18/18
f 12/23/22 20/32/28 13/20/20
f 18/17/17 24/30/26 25/29/25
f 16/19/19 22/31/27 23/33/29
f 14/21/21 20/32/28 21/34/30
f 23/33/29 31/35/31 24/30/26
f 22/31/27 28/36/32 29/37/33
f 20/32/28 26/38/34 27/39/35
f 24/30/26 32/40/36 25/29/25
f 22/31/27 30/41/37 23/33/29
f 21/34/30 27/39/35 28/36/32
f 19/27/24 62/42/13 26/38/34
f 61/43/15 25/29/25 32/40/36
f 32/40/36 38/44/38 39/45/39
f 30/41/37 36/46/40 37/47/41
f 27/39/35 35/48/42 28/36/32
f 26/38/34 62/49/13 33/50/43
f 61/51/15 32/40/36 39/45/39
f 31/35/31 37/47/41 38/44/38
f 28/36/32 36/46/40 29/37/33
f 26/38/34 34/52/44 27/39/35
f 37/47/41 43/53/45 44/54/46
f 35/48/42 41/55/47 42/56/48
f 33/50/43 62/57/13 40/58/49
f 61/59/15 39/45/39 46/60/50
f 37/47/41 45/61/51 38/44/38
f 35/48/42 43/53/45 36/46/40
f 34/52/44 40/58/49 41/55/47
f 38/44/38 46/60/50 39/45/39
f 61/62/15 46/60/50 53/63/52
f 44/54/46 52/64/53 45/61/51
f 42/56/48 50/65/54 43/53/45
f 40/58/49 48/66/55 41/55/47
f 46/60/50 52/64/53 53/63/52
f 44/54/46 50/65/54 51/67/56
f 42/56/48 48/66/55 49/68/57
f 40/58/49 62/69/13 47/70/58
f 50/65/54 56/71/59 57/72/60
f 48/66/55 54/73/61 55/74/62
f 52/64/53 60/75/63 53/63/52
f 50/65/54 58/76/64 51/67/56
f 49/68/57 55/74/62 56/71/59
f 47/70/58 62/77/13 54/73/61
f 61/78/15 53/63/52 60/75/63
f 51/67/56 59/79/65 52/64/53
f 60/75/63 68/80/66 69/81/67
f 58/76/64 66/82/68 67/83/69
f 56/71/59 64/84/70 65/85/71
f 54/73/61 62/86/13 63/87/72
f 61/88/15 60/75/63 69/81/67
f 58/76/64 68/80/66 59/79/65
f 56/71/59 66/82/68 57/72/60
f 54/73/61 64/84/70 55/74/62
f 65/85/71 71/89/73 72/90/74
f 63/87/72 62/91/13 70/92/75
f 61/93/15 69/81/67 76/94/76
f 67/83/69 75/95/77 68/80/66
f 65/85/71 73/96/78 66/82/68
f 64/84/70 70/92/75 71/89/73
f 68/80/66 76/94/76 69/81/67
f 67/83/69 73/96/78 74/97/79
f 61/98/15 76/94/76 83/99/80
f 74/97/79 82/100/81 75/95/77
f 73/96/78 79/101/82 80/102/83
f 70/92/75 78/103/84 71/89/73
f 76/94/76 82/100/81 83/99/80
f 73/96/78 81/104/85 74/97/79
f 72/90/74 78/103/84 79/101/82
f 70/92/75 62/105/13 77/106/86
f 78/103/84 84/107/87 85/108/88
f 82/100/81 90/109/89 83/99/80
f 80/102/83 88/110/90 81/104/85
f 79/101/82 85/108/88 86/111/91
f 77/106/86 62/112/13 84/107/87
f 61/113/15 83/99/80 90/109/89
f 81/104/85 89/114/92 82/100/81
f 80/102/83 86/111/91 87/115/93
f 90/116/89 96/117/94 97/118/95
f 87/119/93 95/120/96 88/121/90
f 86/122/91 92/123/97 93/124/98
f 84/125/87 62/126/13 91/127/99
f 61/128/15 90/116/89 97/118/95
f 88/121/90 96/117/94 89/129/92
f 87/119/93 93/124/98 94/130/100
f 84/125/87 92/123/97 85/131/88
f 91/127/99 62/132/13 98/133/101
f 61/134/15 97/118/95 104/135/102
f 95/120/96 103/136/103 96/117/94
f 93/124/98 101/137/104 94/130/100
f 92/123/97 98/133/101 99/138/105
f 96/117/94 104/135/102 97/118/95
f 95/120/96 101/137/104 102/139/106
f 93/124/98 99/138/105 100/140/107
f 102/139/106 110/141/108 103/136/103
f 101/137/104 107/142/109 108/143/110
f 98/133/101 106/144/111 99/138/105
f 104/135/102 110/141/108 111/145/112
f 101/137/104 109/146/113 102/139/106
f 100/140/107 106/144/111 107/142/109
f 98/133/101 62/147/13 105/148/114
f 61/149/15 104/135/102 111/145/112
f 111/145/112 114/16/16 4/7/7
f 108/143/110 3/10/10 109/146/113
f 107/142/109 113/6/6 1/1/1
f 105/148/114 62/150/13 112/4/4
f 61/151/15 111/145/112 4/7/7
f 109/146/113 114/16/16 110/141/108
f 108/143/110 1/1/1 2/3/3
f 105/148/114 113/6/6 106/144/111
f 1/1/1 7/12/12 8/2/2
f 112/4/4 5/14/14 6/5/5
f 4/7/7 114/16/16 10/8/8
f 3/10/10 2/3/3 8/2/2
f 113/6/6 6/5/5 7/12/12
f 114/16/16 3/10/10 9/11/11
f 10/8/8 17/25/23 18/17/17
f 9/11/11 8/2/2 15/18/18
f 7/12/12 6/5/5 13/20/20
f 9/11/11 16/19/19 17/25/23
f 7/12/12 14/21/21 15/18/18
f 6/5/5 5/14/14 12/23/22
f 16/19/19 23/33/29 24/30/26
f 14/21/21 21/34/30 22/31/27
f 12/23/22 19/27/24 20/32/28
f 18/17/17 17/25/23 24/30/26
f 16/19/19 15/18/18 22/31/27
f 14/21/21 13/20/20 20/32/28
f 23/33/29 30/41/37 31/35/31
f 22/31/27 21/34/30 28/36/32
f 20/32/28 19/27/24 26/38/34
f 24/30/26 31/35/31 32/40/36
f 22/31/27 29/37/33 30/41/37
f 21/34/30 20/32/28 27/39/35
f 32/40/36 31/35/31 38/44/38
f 30/41/37 29/37/33 36/46/40
f 27/39/35 34/52/44 35/48/42
f 31/35/31 30/41/37 37/47/41
f 28/36/32 35/48/42 36/46/40
f 26/38/34 33/50/43 34/52/44
f 37/47/41 36/46/40 43/53/45
f 35/48/42 34/52/44 41/55/47
f 37/47/41 44/54/46 45/61/51
f 35/48/42 42/56/48 43/53/45
f 34/52/44 33/50/43 40/58/49
f 38/44/38 45/61/51 46/60/50
f 44/54/46 51/67/56 52/64/53
f 42/56/48 49/68/57 50/65/54
f 40/58/49 47/70/58 48/66/55
f 46/60/50 45/61/51 52/64/53
f 44/54/46 43/53/45 50/65/54
f 42/56/48 41/55/47 48/66/55
f 50/65/54 49/68/57 56/71/59
f 48/66/55 47/70/58 54/73/61
f 52/64/53 59/79/65 60/75/63
f 50/65/54 57/72/60 58/76/64
f 49/68/57 48/66/55 55/74/62
f 51/67/56 58/76/64 59/79/65
f 60/75/63 59/79/65 68/80/66
f 58/76/64 57/72/60 66/82/68
f 56/71/59 55/74/62 64/84/70
f 58/76/64 67/83/69 68/80/66
f 56/71/59 65/85/71 66/82/68
f 54/73/61 63/87/72 64/84/70
f 65/85/71 64/84/70 71/89/73
f 67/83/69 74/97/79 75/95/77
f 65/85/71 72/90/74 73/96/78
f 64/84/70 63/87/72 70/92/75
f 68/80/66 75/95/77 76/94/76
f 67/83/69 66/82/68 73/96/78
f 74/97/79 81/104/85 82/100/81
f 73/96/78 72/90/74 79/101/82
f 70/92/75 77/106/86 78/103/84
f 76/94/76 75/95/77 82/100/81
f 73/96/78 80/102/83 81/104/85
f 72/90/74 71/89/73 78/103/84
f 78/103/84 77/106/86 84/107/87
f 82/100/81 89/114/92 90/109/89
f 80/102/83 87/115/93 88/110/90
f 79/101/82 78/103/84 85/108/88
f 81/104/85 88/110/90 89/114/92
f 80/102/83 79/101/82 86/111/91
f 90/116/89 89/129/92 96/117/94
f 87/119/93 94/130/100 95/120/96
f 86/122/91 85/131/88 92/123/97
f 88/121/90 95/120/96 96/117/94
f 87/119/93 86/122/91 93/124/98
f 84/125/87 91/127/99 92/123/97
f 95/120/96 102/139/106 103/136/103
f 93/124/98 100/140/107 101/137/104
f 92/123/97 91/127/99 98/133/101
f 96/117/94 103/136/103 104/135/102
f 95/120/96 94/130/100 101/137/104
f 93/124/98 92/123/97 99/138/105
f 102/139/106 109/146/113 110/141/108
f 101/137/104 100/140/107 107/142/109
f 98/133/101 105/148/114 106/144/111
f 104/135/102 103/136/103 110/141/108
f 101/137/104 108/143/110 109/146/113
f 100/140/107 99/138/105 106/144/111
f 111/145/112 110/141/108 114/16/16
f 108/143/110 2/3/3 3/10/10
f 107/142/109 106/144/111 113/6/6
f 109/146/113 3/10/10 114/16/16
f 108/143/110 107/142/109 1/1/1
f 105/148/114 112/4/4 113/6/6
